<svg xmlns="http://www.w3.org/2000/svg" width="3.7in" height="86.4" viewBox="0 0 266.2 67.9"><path fill="#cd9743" d="M.5 18.4C.5 12.3 3.6 9 9.2 9H29c13 0 19.9 4.9 19.9 13.8 0 6.4-3.6 10-10.1 11.5 8.3 2 12 7.1 12 13.9 0 11.1-7.1 15.9-24 15.9H9.2c-5.6 0-8.7-3.3-8.7-9.5zm23.3 12.8c5 0 7.5-1.9 7.5-5.3S28.8 21 24.1 21h-6.8v10.2zm1 20.7c6 0 8.4-1.6 8.4-5.6s-2.6-5.2-8.6-5.2h-7.3v10.8zm46.4-38.7c.9-2.7 3.2-4.7 10.8-4.7s9.7 2 10.6 4.7l18.6 46.2c.6 1.5-4 5.5-9.1 5.5-3.6 0-7.4-2-9.8-8.1l-1.5-4.1H73L71.5 57c-2 5.9-5.6 7.9-9.3 7.9s-9.4-3.8-8.8-5.3zm16.5 27.2l-6-16-5.9 16zm27.7-22c0-6.1 3.1-9.5 8.7-9.5h17c15.3 0 23 6.3 23 18.1 0 8-4.2 14-11.9 16.2l12.4 15.4c.5.7-2.5 5.9-9.8 5.9-5.3 0-7.9-2.3-11.5-7.2l-7.8-10.4h-3.1v9.7c0 5.1-2.6 7.9-7.5 7.9h-2.4c-4.7 0-7.2-3.7-7.2-9.9zm24 16.4c5.1 0 7.7-2.3 7.7-6.4s-2.5-6.5-7.8-6.5h-7v12.9zm31.4-18.3c0-5.3 2.5-7.9 7.2-7.9h2.5c4.9 0 7.4 2.6 7.4 7.9v16.3l13.3-18.5c3-4.3 6.3-5.8 9.4-5.8 5.8 0 10.2 5.4 9.7 6.4l-15.5 21.2L221 58.2c.6 1-4.1 6.3-10.3 6.3-3.2 0-6.5-1.4-9.4-5.7l-13.4-18.6v16.4c0 5.2-2.6 7.9-7.4 7.9H178c-4.7 0-7.2-2.7-7.2-7.9z"/><path fill="none" stroke="#cd9743" stroke-linecap="round" stroke-linejoin="round" stroke-width="3" d="M229.3 26.7l26.1-25m-26.1 33.4h34.5m-34.1 9.3L261 65.3"/></svg>